<svg xmlns="http://www.w3.org/2000/svg" viewBox="0 0 1000 700" width="100%" height="100%" style="background-color: #0f172a; font-family: 'Segoe UI', -apple-system, sans-serif;">
  <!-- Header Bar -->
  <rect x="0" y="0" width="1000" height="60" fill="#1e293b" />
  <circle cx="30" cy="30" r="12" fill="#0ea5e9" />
  <path d="M26 24h8v2h-8zm0 4h8v2h-8zm2 4h4v2h-4z" fill="#ffffff" />
  <text x="60" y="38" fill="#ffffff" font-size="20" font-weight="bold">Smart Waste Management System</text>
  <text x="750" y="36" fill="#94a3b8" font-size="14">Local Broker: localhost:1883</text>
  <circle cx="950" cy="30" r="8" fill="#10b981" />
  <text x="965" y="35" fill="#10b981" font-size="12" font-weight="bold">LIVE</text>

  <!-- Sidebar Tabs Navigation -->
  <rect x="0" y="60" width="200" height="640" fill="#0f172a" border-right="1px solid #1e293b" />
  <line x1="200" y1="60" x2="200" y2="700" stroke="#1e293b" stroke-width="1" />

  <!-- Navigation Buttons -->
  <!-- Tab 1: Overview (Active) -->
  <rect x="10" y="80" width="180" height="40" rx="6" fill="#1e293b" />
  <rect x="10" y="80" width="4" height="40" rx="2" fill="#38bdf8" />
  <text x="35" y="105" fill="#f8fafc" font-size="14" font-weight="600">📊 Overview</text>

  <!-- Tab 2: Bin Monitoring -->
  <text x="35" y="155" fill="#94a3b8" font-size="14" font-weight="500">📋 Bin Monitoring</text>

  <!-- Tab 3: Bin Locations Map -->
  <text x="35" y="205" fill="#94a3b8" font-size="14" font-weight="500">🗺️ Bin Locations Map</text>

  <!-- Tab 4: Analytics Trends -->
  <text x="35" y="255" fill="#94a3b8" font-size="14" font-weight="500">📈 Analytics &amp; Trends</text>

  <!-- Content Workspace -->
  <!-- Row 1: KPI Cards -->
  <!-- Total Bins -->
  <rect x="220" y="80" width="170" height="90" rx="8" fill="#1e293b" stroke="#334155" stroke-width="1" />
  <text x="240" y="110" fill="#94a3b8" font-size="12" font-weight="bold" letter-spacing="1">TOTAL MONITORED BINS</text>
  <text x="240" y="150" fill="#ffffff" font-size="32" font-weight="bold">5</text>
  <text x="340" y="150" fill="#0ea5e9" font-size="20">🗑️</text>

  <!-- Normal Bins -->
  <rect x="410" y="80" width="170" height="90" rx="8" fill="#1e293b" stroke="#334155" stroke-width="1" />
  <text x="430" y="110" fill="#94a3b8" font-size="12" font-weight="bold" letter-spacing="1">NORMAL (0-50%)</text>
  <text x="430" y="150" fill="#10b981" font-size="32" font-weight="bold">3</text>
  <text x="530" y="150" fill="#10b981" font-size="20">🟢</text>

  <!-- Warning Bins -->
  <rect x="600" y="80" width="170" height="90" rx="8" fill="#1e293b" stroke="#334155" stroke-width="1" />
  <text x="620" y="110" fill="#94a3b8" font-size="12" font-weight="bold" letter-spacing="1">WARNING (51-80%)</text>
  <text x="620" y="150" fill="#f59e0b" font-size="32" font-weight="bold">1</text>
  <text x="720" y="150" fill="#f59e0b" font-size="20">🟡</text>

  <!-- Critical Bins -->
  <rect x="790" y="80" width="185" height="90" rx="8" fill="#1e293b" stroke="#334155" stroke-width="1" />
  <text x="810" y="110" fill="#94a3b8" font-size="12" font-weight="bold" letter-spacing="1">CRITICAL (&gt;80%)</text>
  <text x="810" y="150" fill="#ef4444" font-size="32" font-weight="bold">1</text>
  <text x="920" y="150" fill="#ef4444" font-size="20">🔴</text>

  <!-- System Statistics Frame -->
  <rect x="220" y="190" width="755" height="60" rx="8" fill="#1e293b" stroke="#334155" stroke-width="1" />
  <text x="240" y="226" fill="#f8fafc" font-size="14" font-weight="bold">System Diagnostics:</text>
  <text x="390" y="226" fill="#94a3b8" font-size="14">Total Records Logged: <tspan fill="#38bdf8" font-weight="bold">1,842</tspan></text>
  <text x="680" y="226" fill="#94a3b8" font-size="14">Last Updated: <tspan fill="#38bdf8" font-weight="bold">2026-06-23 10:28:45</tspan></text>

  <!-- Bottom Left: Live Table Mockup -->
  <rect x="220" y="270" width="450" height="230" rx="8" fill="#1e293b" stroke="#334155" stroke-width="1" />
  <text x="240" y="300" fill="#ffffff" font-size="15" font-weight="bold">Live Telemetry Table</text>
  <!-- Table Header -->
  <rect x="235" y="315" width="420" height="25" fill="#334155" rx="3" />
  <text x="245" y="332" fill="#f8fafc" font-size="12" font-weight="bold">Bin ID</text>
  <text x="325" y="332" fill="#f8fafc" font-size="12" font-weight="bold">Fill Level</text>
  <text x="425" y="332" fill="#f8fafc" font-size="12" font-weight="bold">Weight</text>
  <text x="515" y="332" fill="#f8fafc" font-size="12" font-weight="bold">Status</text>
  <!-- Row 1 -->
  <text x="245" y="360" fill="#38bdf8" font-size="12" font-weight="bold">BIN001</text>
  <text x="325" y="360" fill="#ffffff" font-size="12">24%</text>
  <text x="425" y="360" fill="#ffffff" font-size="12">12 kg</text>
  <rect x="515" y="347" width="60" height="18" rx="3" fill="rgba(16, 185, 129, 0.2)" />
  <text x="525" y="360" fill="#10b981" font-size="11" font-weight="bold">Normal</text>
  <line x1="235" y1="372" x2="655" y2="372" stroke="#334155" stroke-width="0.5" />
  <!-- Row 2 -->
  <text x="245" y="390" fill="#38bdf8" font-size="12" font-weight="bold">BIN002</text>
  <text x="325" y="390" fill="#ffffff" font-size="12">48%</text>
  <text x="425" y="390" fill="#ffffff" font-size="12">23 kg</text>
  <rect x="515" y="377" width="60" height="18" rx="3" fill="rgba(16, 185, 129, 0.2)" />
  <text x="525" y="390" fill="#10b981" font-size="11" font-weight="bold">Normal</text>
  <line x1="235" y1="402" x2="655" y2="402" stroke="#334155" stroke-width="0.5" />
  <!-- Row 3 -->
  <text x="245" y="420" fill="#38bdf8" font-size="12" font-weight="bold">BIN003</text>
  <text x="325" y="420" fill="#ffffff" font-size="12" font-weight="bold" color="#ef4444">92%</text>
  <text x="425" y="420" fill="#ffffff" font-size="12">47 kg</text>
  <rect x="515" y="407" width="60" height="18" rx="3" fill="rgba(239, 68, 68, 0.2)" />
  <text x="521" y="420" fill="#ef4444" font-size="11" font-weight="bold">Critical</text>
  <line x1="235" y1="432" x2="655" y2="432" stroke="#334155" stroke-width="0.5" />
  <!-- Row 4 -->
  <text x="245" y="450" fill="#38bdf8" font-size="12" font-weight="bold">BIN004</text>
  <text x="325" y="450" fill="#ffffff" font-size="12">65%</text>
  <text x="425" y="450" fill="#ffffff" font-size="12">31 kg</text>
  <rect x="515" y="437" width="60" height="18" rx="3" fill="rgba(245, 158, 11, 0.2)" />
  <text x="521" y="450" fill="#f59e0b" font-size="11" font-weight="bold">Warning</text>
  <line x1="235" y1="462" x2="655" y2="462" stroke="#334155" stroke-width="0.5" />
  <!-- Row 5 -->
  <text x="245" y="480" fill="#38bdf8" font-size="12" font-weight="bold">BIN005</text>
  <text x="325" y="480" fill="#ffffff" font-size="12">15%</text>
  <text x="425" y="480" fill="#ffffff" font-size="12">7 kg</text>
  <rect x="515" y="467" width="60" height="18" rx="3" fill="rgba(16, 185, 129, 0.2)" />
  <text x="525" y="480" fill="#10b981" font-size="11" font-weight="bold">Normal</text>

  <!-- Bottom Right: Map Preview Mockup -->
  <rect x="690" y="270" width="285" height="230" rx="8" fill="#1e293b" stroke="#334155" stroke-width="1" />
  <text x="710" y="300" fill="#ffffff" font-size="15" font-weight="bold">Live India Map View</text>
  <rect x="705" y="315" width="255" height="170" rx="4" fill="#0f172a" />
  <!-- Simulated Map Outline (India abstract shape) -->
  <path d="M 830,330 Q 840,320 850,335 T 845,360 T 820,380 T 830,410 T 835,440 T 815,465 T 795,430 T 780,400 T 790,360 T 815,350 Z" fill="#1e293b" stroke="#475569" stroke-width="1.5" />
  
  <!-- Map Pins (Delhi, Mumbai, Bengaluru, Chennai, Pune) -->
  <!-- Delhi -->
  <circle cx="820" cy="345" r="4" fill="#10b981" />
  <!-- Mumbai -->
  <circle cx="795" cy="405" r="4" fill="#10b981" />
  <!-- Pune -->
  <circle cx="803" cy="412" r="4" fill="#10b981" />
  <!-- Bengaluru -->
  <circle cx="818" cy="442" r="4" fill="#ef4444" />
  <path d="M 818,442 L 850,430" stroke="#ef4444" stroke-dasharray="2,2" stroke-width="1" />
  <!-- Chennai -->
  <circle cx="828" cy="445" r="4" fill="#10b981" />

  <!-- Map Popup Banner Mockup -->
  <rect x="830" y="380" width="120" height="50" rx="4" fill="#1e293b" stroke="#ef4444" stroke-width="1" />
  <text x="835" y="394" fill="#ffffff" font-size="10" font-weight="bold">BIN003 (Bengaluru)</text>
  <text x="835" y="407" fill="#ef4444" font-size="9">Fill Level: 92%</text>
  <text x="835" y="420" fill="#94a3b8" font-size="9">Weight: 47 kg (Critical)</text>

  <!-- Row 3: Charts Mockup -->
  <rect x="220" y="515" width="755" height="155" rx="8" fill="#1e293b" stroke="#334155" stroke-width="1" />
  <text x="240" y="540" fill="#ffffff" font-size="15" font-weight="bold">Fill Level Telemetry Trends (%)</text>
  
  <!-- Chart Grid Lines -->
  <line x1="240" y1="560" x2="950" y2="560" stroke="#334155" stroke-dasharray="3,3" />
  <line x1="240" y1="600" x2="950" y2="600" stroke="#334155" stroke-dasharray="3,3" />
  <line x1="240" y1="640" x2="950" y2="640" stroke="#334155" />
  <text x="960" y="563" fill="#64748b" font-size="10">80%</text>
  <text x="960" y="603" fill="#64748b" font-size="10">40%</text>
  <text x="960" y="643" fill="#64748b" font-size="10">0%</text>

  <!-- Chart Lines -->
  <!-- BIN003 (Bengaluru) - Rising line -->
  <path d="M 240,630 L 360,610 L 480,590 L 600,560 L 720,555 L 840,550 L 950,565" fill="none" stroke="#ef4444" stroke-width="2.5" />
  <!-- BIN004 (Delhi) - Fluctuating line -->
  <path d="M 240,620 L 360,595 L 480,615 L 600,600 L 720,590 L 840,580 L 950,578" fill="none" stroke="#f59e0b" stroke-width="2.0" />
  <!-- BIN001 (Pune) - Low line -->
  <path d="M 240,635 L 360,638 L 480,630 L 600,632 L 720,625 L 840,627 L 950,624" fill="none" stroke="#10b981" stroke-width="2.0" />

  <!-- Chart Legends -->
  <circle cx="250" cy="525" r="4" fill="#10b981" />
  <text x="260" y="528" fill="#94a3b8" font-size="10">BIN001 (Pune)</text>
  <circle cx="350" cy="525" r="4" fill="#a855f7" />
  <text x="360" y="528" fill="#94a3b8" font-size="10">BIN002 (Mumbai)</text>
  <circle cx="450" cy="525" r="4" fill="#ef4444" />
  <text x="460" y="528" fill="#94a3b8" font-size="10">BIN003 (Bengaluru)</text>
  <circle cx="560" cy="525" r="4" fill="#f59e0b" />
  <text x="570" y="528" fill="#94a3b8" font-size="10">BIN004 (Delhi)</text>
  <circle cx="660" cy="525" r="4" fill="#3b82f6" />
  <text x="670" y="528" fill="#94a3b8" font-size="10">BIN005 (Chennai)</text>

  <!-- Live Toast Alert Banner Mockup (Top Right) -->
  <rect x="680" y="75" width="280" height="55" rx="6" fill="#1e1b4b" stroke="#ef4444" stroke-width="1.5" />
  <circle cx="705" cy="102" r="12" fill="#ef4444" />
  <text x="701" y="106" fill="#ffffff" font-weight="bold" font-size="14">!</text>
  <text x="725" y="98" fill="#ffffff" font-size="11" font-weight="bold">Critical Threshold Alert</text>
  <text x="725" y="115" fill="#ef4444" font-size="10" font-weight="600">BIN003 (Bengaluru) is full at 92%!</text>
</svg>
